<?xml version="1.0" standalone="no"?>
<!DOCTYPE svg PUBLIC "-//W3C//DTD SVG 20010904//EN"
 "http://www.w3.org/TR/2001/REC-SVG-20010904/DTD/svg10.dtd">
<svg version="1.0" xmlns="http://www.w3.org/2000/svg"
 width="500.000000pt" height="500.000000pt" viewBox="0 0 500.000000 500.000000"
 preserveAspectRatio="xMidYMid meet">
<metadata>
Created by potrace 1.16, written by Peter Selinger 2001-2019
</metadata>
<g transform="translate(0.000000,500.000000) scale(0.100000,-0.100000)"
fill="#000000" stroke="none">
<path d="M0 2500 l0 -2500 2500 0 2500 0 0 2500 0 2500 -2500 0 -2500 0 0
-2500z m2448 2405 c46 -19 1404 -1371 1433 -1427 30 -59 26 -143 -10 -199 -47
-71 -1369 -1385 -1413 -1404 -50 -20 -126 -19 -165 2 -18 10 -343 328 -724
708 -488 486 -697 701 -710 730 -24 51 -24 109 0 160 13 27 174 195 488 508
l468 467 173 -173 172 -173 -9 -50 c-12 -60 -2 -108 32 -166 24 -42 75 -88 97
-88 7 0 10 -137 10 -425 0 -234 -4 -425 -9 -425 -4 0 -29 -18 -53 -40 -108
-94 -108 -255 0 -352 49 -44 108 -62 178 -55 122 13 207 108 207 232 0 73 -25
128 -83 177 l-40 35 0 414 0 414 154 -155 155 -155 -11 -51 c-28 -141 85 -274
232 -274 244 0 322 328 105 443 -31 16 -58 22 -117 22 l-78 0 -161 160 -161
160 6 51 c11 102 -40 200 -128 247 -31 16 -58 21 -113 21 l-72 0 -173 173
-173 173 145 146 c85 86 161 154 185 165 49 23 113 24 163 4z m147 -3610 c49
-25 67 -57 62 -113 -5 -48 -40 -92 -88 -112 -16 -7 -29 -14 -29 -17 0 -14 97
-138 128 -163 l37 -30 -67 0 c-45 0 -67 4 -71 13 -3 7 -31 50 -63 95 -55 78
-60 82 -96 82 l-38 0 0 -85 c0 -69 3 -86 18 -94 12 -8 -4 -10 -63 -10 -59 0
-75 2 -62 10 15 9 17 30 17 219 0 188 -2 210 -17 220 -13 8 22 10 137 7 129
-2 162 -6 195 -22z m-1290 -18 c-106 -106 -45 -346 99 -387 82 -23 126 7 126
85 0 63 -9 72 -75 78 -28 2 3 4 68 5 108 2 117 1 103 -14 -11 -11 -16 -35 -16
-82 0 -70 5 -85 30 -95 8 -3 -15 -6 -52 -6 -61 -1 -68 1 -68 19 0 19 0 19 -32
0 -104 -60 -248 -11 -307 105 -25 47 -28 139 -8 188 21 49 62 93 110 116 57
28 61 27 22 -12z m677 -42 l-4 -55 41 0 c22 0 41 -4 41 -10 0 -5 -18 -10 -40
-10 l-40 0 0 -145 0 -145 33 -1 32 -1 -34 -10 c-20 -5 -49 -6 -70 -1 l-36 9
-3 182 c-2 164 -4 182 -20 182 -14 1 81 58 99 60 3 0 4 -25 1 -55z m-182 -203
c0 -102 4 -152 12 -160 9 -9 0 -12 -42 -12 l-55 0 3 150 c2 117 0 150 -10 151
-17 2 40 16 70 18 22 1 22 0 22 -147z m1173 139 c35 -14 67 -51 67 -77 0 -40
-35 -54 -132 -54 -88 0 -88 0 -88 -25 0 -35 24 -79 56 -104 30 -23 101 -29
136 -10 11 6 22 8 25 5 4 -3 -15 -15 -42 -27 -60 -27 -151 -23 -192 7 -50 38
-67 71 -67 128 0 43 5 61 27 90 28 35 73 66 99 66 8 0 9 -3 2 -8 -22 -15 -44
-58 -44 -84 0 -27 1 -28 59 -28 77 0 91 6 91 40 0 36 -34 78 -68 83 -22 3 -20
4 10 6 20 0 48 -3 61 -8z m397 -17 c53 -31 73 -65 73 -127 0 -104 -70 -167
-186 -167 l-57 0 0 -58 c0 -33 5 -63 13 -71 10 -10 7 -11 -13 -7 -14 3 -42 8
-62 11 -35 5 -37 7 -28 31 6 14 10 104 10 200 0 172 0 175 -22 183 -19 7 -15
10 27 16 28 3 55 8 60 11 27 11 155 -4 185 -22z m387 6 c57 -26 83 -69 83
-141 0 -100 -63 -159 -168 -159 -101 0 -171 64 -172 158 0 65 45 132 100 147
14 3 20 3 14 -2 -34 -25 -44 -110 -23 -186 16 -57 64 -107 103 -107 52 0 71
29 70 109 -1 105 -46 181 -115 194 -14 2 -5 5 21 5 25 1 63 -7 87 -18z"/>
<path d="M2370 1190 l0 -120 28 -7 c45 -12 129 -8 146 6 40 33 42 148 4 196
-22 28 -73 45 -135 45 l-43 0 0 -120z"/>
<path d="M3200 1036 c0 -128 1 -136 22 -150 12 -9 39 -16 59 -16 57 0 79 34
79 120 0 115 -44 180 -121 180 l-39 0 0 -134z"/>
</g>
</svg>
